<svg width="24" height="24" viewBox="0 0 24 24" xmlns="http://www.w3.org/2000/svg">
<path d="M20.443 13.0849C20.443 12.7956 20.5886 12.3617 20.5886 11.9277C20.5886 11.4938 20.5886 11.0598 20.443 10.7705L22.9177 8.74531C23.2088 8.456 23.2089 8.31135 23.0633 8.02204L20.7342 3.97175C20.5886 3.8271 20.443 3.68248 20.0063 3.82713L17.0949 4.98434C16.5126 4.55038 15.7848 4.11644 15.0569 3.82713L14.6203 0.789347C14.7658 0.50004 14.3291 0.210785 14.1835 0.210785H9.52532C9.23418 0.210785 8.943 0.500075 8.943 0.644729L8.50631 3.82713C7.77846 4.11644 7.19619 4.55038 6.46834 4.98434L3.70253 3.82713C3.41139 3.68248 3.12024 3.82706 2.8291 4.11637L0.499976 8.16675C0.354406 8.3114 0.499993 8.60071 0.791133 8.89002L3.26579 10.7705C3.26579 11.0598 3.12021 11.4938 3.12021 11.9277C3.12021 12.3617 3.12022 12.7956 3.26579 13.0849L0.791133 15.1101C0.499993 15.3994 0.499985 15.5441 0.645554 15.8334L2.97468 19.8837C3.12025 20.0283 3.26582 20.1729 3.70253 20.0283L6.61392 18.8711C7.1962 19.305 7.92404 19.739 8.65189 20.0283L9.08858 23.0661C9.08858 23.3554 9.37971 23.5 9.67085 23.5H14.3291C14.6202 23.5 14.9114 23.2107 14.9114 23.0661L15.3481 20.0283C16.076 19.739 16.8038 19.305 17.3861 18.8711L20.2975 20.0283C20.5886 20.1729 20.8797 20.0284 21.0253 19.7391L23.3544 15.6887C23.5 15.3994 23.5 15.1101 23.2089 14.9654L20.443 13.0849ZM11.8544 15.978C9.67085 15.978 7.77846 14.0975 7.77846 11.9277C7.77846 9.75791 9.67085 7.87742 11.8544 7.87742C14.0379 7.87742 15.9304 9.75791 15.9304 11.9277C15.9304 14.0975 14.0379 15.978 11.8544 15.978Z" />
</svg>
